<?xml version="1.0" standalone="no"?>
<!DOCTYPE svg PUBLIC "-//W3C//DTD SVG 20010904//EN"
 "http://www.w3.org/TR/2001/REC-SVG-20010904/DTD/svg10.dtd">
<svg version="1.0" xmlns="http://www.w3.org/2000/svg"
 width="190.000000pt" height="190.000000pt" viewBox="0 0 190.000000 190.000000"
 preserveAspectRatio="xMidYMid meet">
<metadata>
Created by potrace 1.14, written by Peter Selinger 2001-2017
</metadata>
<g transform="translate(0.000000,190.000000) scale(0.100000,-0.100000)"
fill="#000000" stroke="none">
<path d="M807 1320 c-14 -11 -28 -33 -32 -49 -3 -16 -23 -42 -43 -58 -20 -17
-48 -49 -62 -71 l-25 -41 -66 -1 c-63 0 -67 1 -98 37 -30 33 -37 36 -89 37
-42 1 -60 6 -70 19 -15 20 -62 23 -80 5 -19 -19 -15 -66 7 -78 28 -15 49 -12
69 8 10 10 35 18 62 19 40 3 48 -1 86 -38 41 -40 43 -41 103 -37 l62 4 -7 -31
c-9 -44 -9 -44 -77 -42 -60 3 -62 3 -67 32 -5 27 -9 30 -42 30 -20 0 -45 8
-55 18 -39 35 -93 13 -93 -37 0 -41 67 -62 92 -28 7 9 25 18 40 18 23 2 27 -3
30 -30 l3 -31 78 1 77 1 0 -28 c0 -15 3 -36 6 -46 3 -10 2 -14 -3 -7 -4 6 -44
10 -92 10 -67 -1 -86 2 -95 16 -22 31 -80 23 -91 -13 -17 -51 58 -92 88 -49
13 18 24 20 105 19 74 -1 91 -4 95 -18 3 -9 8 -24 12 -33 6 -16 -1 -18 -82
-18 -77 0 -92 -3 -108 -20 -24 -26 -95 -28 -118 -2 -11 11 -29 17 -54 16 -27
-2 -41 3 -51 17 -25 35 -92 12 -92 -32 0 -48 68 -70 95 -32 16 23 61 23 98 -1
29 -20 109 -16 134 6 14 13 40 18 107 19 77 1 91 -1 103 -17 52 -74 141 -134
221 -150 l32 -6 0 130 c0 126 -1 132 -25 156 -35 35 -33 79 4 117 36 36 70 37
110 3 39 -33 42 -80 7 -121 -22 -27 -24 -36 -24 -156 l1 -128 34 6 c71 11 170
77 215 144 15 22 22 23 104 22 68 -1 92 -5 107 -18 24 -22 116 -27 137 -8 25
23 67 25 92 6 36 -27 54 -31 77 -15 26 19 27 55 3 77 -24 22 -48 21 -70 -1
-10 -10 -34 -18 -55 -19 -21 0 -46 -8 -56 -17 -26 -23 -93 -21 -116 4 -15 17
-31 20 -106 20 l-87 0 11 35 10 35 91 0 c80 0 93 -2 104 -20 15 -25 43 -26 72
-2 29 23 22 64 -14 80 -20 9 -29 8 -50 -9 -20 -15 -43 -20 -108 -22 l-83 -2
-3 35 -3 35 78 0 78 0 5 30 c4 24 10 30 30 30 14 0 33 -8 42 -17 36 -36 88
-17 88 32 0 14 -5 31 -12 38 -18 18 -66 15 -77 -5 -6 -12 -23 -18 -48 -19 -21
-1 -41 -2 -45 -3 -5 -1 -8 -14 -8 -29 0 -28 -1 -28 -65 -29 -70 -1 -69 -2 -79
40 l-6 27 63 0 c60 0 65 2 100 38 32 33 44 38 84 39 36 1 52 -3 66 -18 41 -44
115 7 83 56 -18 27 -71 32 -85 8 -7 -15 -20 -18 -63 -17 -49 1 -56 -1 -94 -38
-39 -38 -45 -40 -92 -37 -28 2 -48 1 -46 -3 3 -4 -2 -5 -11 -2 -9 4 -29 26
-46 50 -16 24 -45 55 -64 70 -19 14 -35 35 -35 45 0 25 -40 69 -70 74 -56 11
-104 -44 -88 -102 11 -44 53 -66 99 -53 41 12 66 -3 109 -62 95 -130 56 -323
-81 -408 -27 -16 -51 -30 -54 -30 -3 0 -5 36 -5 80 0 66 4 86 21 109 77 105
-23 253 -148 219 -98 -26 -140 -138 -83 -218 19 -27 25 -73 21 -163 l-1 -27
-41 21 c-49 25 -92 68 -122 124 -17 32 -22 57 -22 125 0 76 3 91 30 139 40 72
83 105 119 91 86 -32 152 77 82 136 -33 29 -65 30 -99 4z m71 -63 c4 -20 -25
-34 -40 -19 -15 15 -1 44 19 40 10 -2 19 -11 21 -21z m200 0 c4 -21 -27 -35
-38 -17 -12 19 0 42 19 38 9 -2 17 -11 19 -21z m576 -108 c-7 -12 -31 -11 -39
1 -4 6 -1 18 6 26 12 14 14 14 26 -2 7 -9 10 -21 7 -25z m-1354 11 c0 -13 -7
-20 -20 -20 -13 0 -20 7 -20 20 0 13 7 20 20 20 13 0 20 -7 20 -20z m63 -105
c4 -8 2 -17 -4 -21 -15 -9 -39 3 -39 21 0 19 36 20 43 0z m1227 -5 c0 -13 -7
-20 -20 -20 -13 0 -20 7 -20 20 0 13 7 20 20 20 13 0 20 -7 20 -20z m-1184
-169 c-9 -14 -33 -14 -41 -1 -4 6 -1 18 6 26 11 13 14 13 27 0 8 -8 11 -19 8
-25z m1144 14 c0 -21 -30 -31 -40 -14 -11 17 -3 29 21 29 10 0 19 -7 19 -15z
m-1347 -99 c8 -19 -15 -37 -32 -26 -17 10 -7 40 13 40 7 0 16 -6 19 -14z
m1544 -2 c7 -20 -17 -37 -34 -23 -15 13 -6 39 13 39 8 0 17 -7 21 -16z"/>
</g>
</svg>
